<svg id="Layer_1" data-name="Layer 1" xmlns="http://www.w3.org/2000/svg" xmlns:xlink="http://www.w3.org/1999/xlink" viewBox="0 0 512 512"><defs><radialGradient id="GradientFill_1" cx="256" cy="256" r="349.6" gradientUnits="userSpaceOnUse"><stop offset="0" stop-color="#231f20"/><stop offset="0.36" stop-color="#292627"/><stop offset="0.71" stop-color="#87898b"/><stop offset="1" stop-color="#929497"/></radialGradient><linearGradient id="linear-gradient" x1="256" y1="313.27" x2="256" y2="91.27" gradientUnits="userSpaceOnUse"><stop offset="0"/><stop offset="1" stop-color="#a6a6a6"/></linearGradient><linearGradient id="GradientFill_2" x1="256" y1="365.02" x2="256" y2="136.87" gradientUnits="userSpaceOnUse"><stop offset="0" stop-color="#bbbdbf"/><stop offset="0.68" stop-color="#f5f5f6"/><stop offset="1" stop-color="#fff"/></linearGradient></defs><title>home</title><path d="M303.33,250.89a59.85,59.85,0,0,0-1.67-14.06l1.67,14.06Zm23.54,0L184.3,192.83a83.06,83.06,0,0,1,142.57,58.06ZM165.61,279.11l161.26-28.22a83.08,83.08,0,0,1-161.26,28.22Zm150.18-28.22L184.61,209.82a72,72,0,0,1,131.19,41.07Zm-140.1,23.51,0,.14,0-.14Zm.59,1.64,139.52-25.15A72,72,0,0,1,176.28,276ZM300.91,234q-.75-2.52-1.7-4.95l1.7,4.95Zm-2.72-7.36c-.66-1.5-1.4-3-2.18-4.41l2.18,4.41Zm-14.81-20.25c-.82-.73-1.68-1.46-2.56-2.15l2.56,2.15ZM267.14,196a59,59,0,0,0-6.44-2.31l6.44,2.31Zm-15.35-4.22c-1.12-.15-2.26-.28-3.41-.36l3.41.36Zm-8.65-.54a59.6,59.6,0,0,0-56.88,44.16l56.88-44.16Zm-58.74,55c-.08,1.09-.14,2.2-.16,3.31l.16-3.31Zm3.47,25.17c.34.92.7,1.84,1.07,2.74l-1.07-2.74ZM251.69,310a58.45,58.45,0,0,0,11.06-2.57L251.69,310Zm21-6.94c1.22-.68,2.4-1.4,3.58-2.16L272.66,303Zm6.37-4.1c1-.77,2.08-1.58,3.07-2.42L279,298.92Zm20.84-28,.47-1.34-.47,1.34Zm2.12-7.43,1.34-12.63A60,60,0,0,1,302,263.52Zm26.68-53.65a12.09,12.09,0,0,0,3.54-1h0A12,12,0,0,0,337.85,193a12.54,12.54,0,0,0-1.86-2.76c.14-5.45-2.82-9.42-5.17-12.62,5.13-1.7,12.84-5.05,27.18-3.29,0-5.14-1-10.48-6.11-14,6.71-3.11,18.79-4.67,25.71,10.7,2.89-8.46-1.76-17.18-8.29-23.46,9.5-1.51,37.59,2.34,51.44,24.72,7.27,11.9,7.58,28.25-3.41,36.45-6,4.43-11.38,2.44-14.49.13-2.42-1.86-3-11.73,7.18-6.14.75-10.69-6.32-13.54-11.44-10.87s-9.46,12.57-.74,25.27,35.68,11.21,41.71-21C444.72,214,442.23,239,415,250.92c5.83,6.47,17.72,10.45,27.33-.58-7.62,16.89-25.39,18.54-35.85,21.15,4.08,7.87,11.83,9.87,19.77,8.71-8.58,5.12-19.82,10.16-33,8.07,2.22,6.32,2.68,6.73,7.8,9.1-3.43,1.71-19.32,3-32-.1s-22.4-15.75-16.79-27.75c2.7-5.71,15.41-14.55,19.23,3.66,11.29-7,7.85-19.84-4.67-23.29,9.69-1.38,22.91-2.18,25.47-21.2,1-8.27-.5-18.75-3.21-27-3.55-10.65-10.31-18.48-17.1-18.82-12-.46-14.25,8.44-9.74,15.73,4.85-2.4,15.75-5.68,14.71,3.23s-7.13,9.26-17.92,13.08c-4.65-9.89-9.67-11.7-21.88-8.88,6-1.22,11.78,6.21,7.34,14.27-3.93,7.18-14.36,14.63-17.91,24.89a47.12,47.12,0,0,0,1.77,34,48.92,48.92,0,0,0,4,6.94c-.33,5.37-3.25,11.56-6.77,17.69-1,.44-1.89.88-2.82,1.37-.86-7.71,6.38-14.23,6.9-21.28a3.55,3.55,0,0,0-4.41-3.61c-2.44.67-6.28,4.84-8.44,3.47-4.69-3.08-5.65-14.21-14.59-13.32a9.32,9.32,0,0,0-2.32.47c-6.52,2.31-6,11.72-9.74,15.12-1.84,1.79-6.39-1.6-8.91-1.85a3.41,3.41,0,0,0-3.64,4.22c.7,2.88,2.58,5.46,4.53,8.07,3.14,4.17,6.49,8.39,5.82,13.86L279,298.92l-3.46-4.45c-1.57-4-1.88-7.9,0-11.45a9.94,9.94,0,0,1-6.46,2.22c-7.36-11.52-14.65-25.15-10.9-38.85,1.92-6.67,6.43-12.13,12.09-16.12l.7.6a28.19,28.19,0,0,0-2.85,11.86c-.32,6.63,1.12,13.95,5.84,19.68,4.69,5.92,12.65,8.74,20.19,8.41a26,26,0,0,0,6.16-1.21,29.16,29.16,0,0,0,14-10.17c5-5.93,5.38-16.18-.39-21.42-2.55-2.35-5.7-4.88-9.68-4.76a8,8,0,0,0-3.39.73,11.36,11.36,0,0,0-5,4.82c-3.31,5.41-2.31,14,3.65,15.26-7.68-3.52-3.78-14.45,2.13-17.24,2.7-1.27,5.8-.86,8.43,2.71,8.46,7.22,1.67,19.23-8.11,24a21.08,21.08,0,0,1-4.46,1.6c-6.26,1.51-13.57.09-18.17-3.95-4.8-4.1-7.12-10.59-7.45-16.7A29,29,0,0,1,276,226.89l.6-.31a13.41,13.41,0,0,0,25.44-6.63,13.76,13.76,0,0,0-.55-3.06l3.13-.92c2.61.32,5.15.55,7.6.67A10.37,10.37,0,1,0,329.94,211a62.14,62.14,0,0,0,10.9-.47l1.17-3.45a67.29,67.29,0,0,1-13,3.1l-.38-.3ZM145.15,447.09h0a14.31,14.31,0,0,0-14.3-14.31h0a14.31,14.31,0,0,0-14.3,14.31h0a14.3,14.3,0,0,0,14.3,14.3h0a14.3,14.3,0,0,0,14.3-14.3Zm-2.13,0h0a12.19,12.19,0,0,1-12.17,12.17h0a12.19,12.19,0,0,1-12.17-12.17h0a12.17,12.17,0,0,1,12.17-12.18h0A12.17,12.17,0,0,1,143,447.09Zm4.54,0h0a16.73,16.73,0,0,1-16.71,16.73h0a16.72,16.72,0,0,1-16.71-16.73h0a16.7,16.7,0,0,1,16.71-16.72h0a16.71,16.71,0,0,1,16.71,16.72Zm-1.42,0h0a15.3,15.3,0,0,1-15.29,15.3h0a15.31,15.31,0,0,1-15.3-15.3h0a15.31,15.31,0,0,1,15.3-15.31h0a15.3,15.3,0,0,1,15.29,15.31Zm12,0h0a27.22,27.22,0,0,1-27.24,27.26h0a27.22,27.22,0,0,1-27.24-27.26h0a27.23,27.23,0,0,1,27.24-27.27h0a27.24,27.24,0,0,1,27.24,27.27Zm-4,0h0a23.25,23.25,0,0,1-23.22,23.24h0a23.26,23.26,0,0,1-23.23-23.24h0a23.26,23.26,0,0,1,23.23-23.25h0a23.25,23.25,0,0,1,23.22,23.25Zm-23.22,31.26h0a31.24,31.24,0,0,1-31.24-31.26h0a31.3,31.3,0,0,1,2.12-11.35c-8.64-19.47-11.8-60.85,8.25-72.36,11.72-6.29,23.7-5.59,28,1.46,3.63,5.51,12.09,18.56,16.22,36.08-6.68-27.11-7.73-40.4,1.11-46.57C163,349,173,345.1,182.59,348l1.34-3.84,0-.05c.21,1.57.5,3.12.82,4.69a28.88,28.88,0,0,1,11.75,9.78c8.05,10.92,10,20.87,14.15,29.71a95.53,95.53,0,0,0,12.83,7.1c8.68,4.1,18.21,7.37,27.52,11.52,13.08-4.08,28.2,1.22,38.34,7.09-9.93-5.07-23.83-8.77-35.36-5.8a103.6,103.6,0,0,1,19.73,11.91c7.75,6.12,14.08,15.3,16.11,25.52,1,5,1.36,10.72-1,16.21-1.3,3.08-3.88,5.22-6.74,6.84.94,5.57-1.58,12.21-6.67,15.08-5.19,3.19-11.13,3.07-16.27,1.89-10.67-2.16-18.28-11.33-21.79-20.33-6.62-17.37-9.72-39.84,4.48-53,1.19-.88,2.79-1.77,3.94-2.54h0c-6.42-2.9-13.42-5.61-19.71-8.59a112.29,112.29,0,0,1-11.35-5.89,36.51,36.51,0,0,0,7.92,7.93,32.38,32.38,0,0,0-20,.42c5.18,8.08,10.08,16.77,12.33,27.21,3,13-1.4,26.78-9.16,36.47-3.95,4.66-10.06,9.43-17.31,8.13C181.85,474,177.93,469,175,464.14c-.33.7-.67,1.37-1,2h0a63.82,63.82,0,0,1-13.61-8.73,31.27,31.27,0,0,1-29.5,20.94Zm3.5-62.34c-.06-.39-.11-.75-.13-1.1L134,416l.33,0Zm-3.5,61.4h0a30.33,30.33,0,0,1-30.3-30.32h0a30.33,30.33,0,0,1,30.3-30.32h0a30.3,30.3,0,0,1,30.29,30.32h0a30.32,30.32,0,0,1-30.29,30.32ZM391.14,372.33h0a34.4,34.4,0,0,0-34.4-34.42v0h0v0a34.4,34.4,0,0,0-34.39,34.42h0a34.38,34.38,0,0,0,34.39,34.42h0a34.4,34.4,0,0,0,34.4-34.42Zm-5.12,0h0a29.31,29.31,0,0,1-29.29,29.29h0a29.3,29.3,0,0,1-29.28-29.29h0A29.31,29.31,0,0,1,356.74,343h0A29.33,29.33,0,0,1,386,372.32Zm10.93,0h0a40.2,40.2,0,0,0-40.21-40.24h0a40.19,40.19,0,0,0-40.21,40.24h0a40.19,40.19,0,0,0,40.21,40.23h0a40.2,40.2,0,0,0,40.21-40.23Zm-3.42,0h0a36.8,36.8,0,0,1-36.8,36.82h0a36.82,36.82,0,0,1-36.8-36.82h0a36.82,36.82,0,0,1,36.8-36.82h0a36.82,36.82,0,0,1,36.8,36.82Zm28.77,0h0a65.51,65.51,0,0,0-65.55-65.6v0h0v0a65.53,65.53,0,0,0-65.55,65.6h0a65.53,65.53,0,0,0,65.55,65.59v0h0v0a65.51,65.51,0,0,0,65.55-65.59Zm-9.68,0a55.93,55.93,0,0,0-55.88-55.92v0h0v0a55.91,55.91,0,0,0-55.87,55.92h0a55.95,55.95,0,0,0,55.87,55.93v0h0v0a56,56,0,0,0,55.88-55.93h0Zm-91.85-66.08a30.67,30.67,0,0,0-11.65-2.78c-3.67-9-3.75-25.43-6.07-25.64-2.34.65.43,16.76-1.6,26.28a30.45,30.45,0,0,0-13.41,6.4l1.54,2A28.71,28.71,0,0,1,318,307.84c.92-.56,1.85-1.09,2.79-1.61Zm-11.83,8a16,16,0,0,1-1.29-4.22,27,27,0,0,0-3.91.4,19.61,19.61,0,0,1-.31,3.29,16.42,16.42,0,0,1-18.85,12.93,19.65,19.65,0,0,0-1.09,4.59,12.83,12.83,0,0,1,3,1.31,16.46,16.46,0,0,1,4.4,3.49,75.51,75.51,0,0,1,12.69-16.88q2.58-2.58,5.36-4.89ZM284.53,351.4a28.93,28.93,0,0,1-4.38-24.19c-1.18,1.37-2.41,2.67-3.7,3.92l.3.17a31.37,31.37,0,0,0,2.06,14.82l-.09.1c-8.17-3.91-16.49,3.62-24.09,3.11a3.53,3.53,0,0,1-3.16-2.75c-12.64,4.84-24.86,6.1-31.23,4.82,16.3,7.59,20.85,23.9,19.52,34.74-5.33,2.52-14.91,3.45-25.59,2.59l-.63-1.54-1.18-2.42L211.19,382l-1-2.74-1.09-3-1.09-3-1.41-3.16-1.41-3.15-1.73-3.31-2.13-3.32-2.46-3.49-2.61-3.16-2.7-2.61-2.87-2.28-1.83-1.15a14.94,14.94,0,0,1,7.51,3.87c-3.08-11.7-28.88-18.12-25.62-8.75a3.35,3.35,0,0,0,1.19,1.61l-2.42.38-2.82.77-2.91.93c1.2-6.26,4.39-10.89,9.31-12.19,6.29-2,21.14-6.51,39.13-5.74-28-.89-41-3.54-44.61-13.88-4.5-13.25-4.54-30.86,15.33-38.43a60.14,60.14,0,0,1,6-2c17.23-4.68,29.75-.06,43.9-11-11.48,19.17,2.81,27.55-12.14,40.88a93.07,93.07,0,0,1,15.84,1.64,2.43,2.43,0,0,1,1.61-1.13,2.4,2.4,0,0,1,2.83,1.83l0,.27A96.24,96.24,0,0,1,251.69,310q3,1.12,5.86,2.39a11.44,11.44,0,0,0,4.57-1.85c.76-.63.83-1.79.62-3.11-.33-2-1.31-4.48-1.27-6a3.47,3.47,0,0,1,4.73-3,20.74,20.74,0,0,1,6.45,4.65c4.05,3.94,7.92,8.63,14,8.65l-.08.1a30.87,30.87,0,0,0-8.1,12.05c-.6.05-1.22.07-1.86.07,1.29,1.06,2.46,2.13,3.54,3.17A28.42,28.42,0,0,1,287.91,314c.34-.33.7-.66,1.06-1l-8.22-7.41c-1.53-1.55-3-3.15-4.51-4.75-.76-.83-1.54-1.66-2.28-2.49-4.27-3-8.63-4.34-12.95-2.77a9,9,0,0,0,3-5.36,8.89,8.89,0,0,0-.24-4.62c-1.65-2.39-3.22-4.83-4.66-7.35-5.59-9.56-10.35-22.23-7.07-33.63a32.79,32.79,0,0,1,5.38-10.78,35,35,0,0,1-10.11,2.2c-7.94.7-19.11-1.48-24-11.28-2.27-4.31-2.36-10.09.75-14.13a12.67,12.67,0,0,1,12.57-4.75c10.13,2.2,9.47,16.78,1.6,17.38,7.4-3,3.87-14.17-3.17-13.74-7.1-.31-11.34,8.6-6,14.88,7.34,8.74,21.33,9.6,31.45,5.89a43.25,43.25,0,0,1,11.84-8.12c.5-1.3,1-2.58,1.61-3.88a11.7,11.7,0,0,1-14-17.54,10.85,10.85,0,0,1,1-1.23c-1.66-1.19-3.3-2.47-4.91-3.81-1.45-1.23-2.88-2.52-4.28-3.89l-1-.95a13.93,13.93,0,0,1-2.45.58,15.93,15.93,0,0,1-5.24-.18,19.62,19.62,0,0,1-13.27-9.67,31.78,31.78,0,0,1-3.41-26c.29-.83.63-1.63,1-2.43a28.58,28.58,0,0,0-14-11.8c-1,1.25-1.74,2.47-1.29,3.58,2.2,5.89,14.27,9.48,11.24,19.19-2.82,9.76-14.87,6.06-20.06,9.69-2.36,1.7.39,7.47.07,10.3a4,4,0,0,1-5.62,3.12c-7.84-3.86-11.66-15.84-21.91-16.62l0-.1a34.68,34.68,0,0,0,10.08-13c10.93-.05,28.17,6.77,29.37,4.43.31-2.73-17.7-6.59-26.82-12.73a34.72,34.72,0,0,0-1.06-16.76l-2.73.78a32.41,32.41,0,0,1-37.46,41.47c.86,1.07,1.68,2.19,2.45,3.34l1,.09c.34,1,.67,2,.94,3.13a47.79,47.79,0,0,1,6,20.41l0,0c.3-6.4-.09-16.81,1.73-23.76a34.79,34.79,0,0,0,15.52-6.69l.11,0c-1.64,8.56,5.77,14.73,9.13,21.54a15.69,15.69,0,0,1,1.36,3.83,3.89,3.89,0,0,1-3.43,4.69,74.92,74.92,0,0,1,2.38,8.47,86.28,86.28,0,0,1,1.65,25.63,61.67,61.67,0,0,1-1.85,10.83,29.64,29.64,0,0,1-1.89,5.18c.56-.66,1.14-1.28,1.73-1.87A33.38,33.38,0,0,1,213,240a31.37,31.37,0,0,1,8,2.2c1.06,5.8-.74,15.2-4.48,25.21l-1.61.39-2.73.21-2.82.36-3,.29-3.13.21-3.23.37-3.22.35-3.55.61-1.79.37-1.83.39-1.8.52-2,.57-4,1.4-3.79,1.48L176.28,276l-1.38.83-3,2.3-1.55,1.43a14.88,14.88,0,0,1,5.38-6.07l.24-.14h-.28c-3.47.06-7,2-10.08,4.71-7.46,6.65-11.94,17.91-4.92,17.55a2.88,2.88,0,0,0,1.86-.87l-.35,2.65-.11,3,.28,3c-5.76-3-9.24-7.2-9.26-12.26,0-6.68-.55-22.13,5-39.28-8.28,26.69-14.36,38.52-25.22,39.2a32.44,32.44,0,0,1-6.19-.15L129,288l2-5,1-5.54-.33-5.63-1.39-5.56-2.11-5.34-2.91-5.34-2.92-4.33c-1,.27-2.09.53-3.15.73,7.38,9.69,11.66,20.42,8.81,30.09-4.17,12.83-13.26,20.68-21.19,18.42-6.49-1.52-21.57-4.83-36.64-14.83,23.61,15,33.64,23.8,31.42,34.39-2.9,13.88-11.67,29-32.69,25.44C47.22,342,39,328.84,19.06,331.51c19.9-10.79,11.79-25.28,31.36-29.15-22.9-14-35.83-35.66-39.6-49.95h0c18.6-6.45,39.36-2.71,52.65,2.78-8.24-14.72-7.46-34.1-20-46.29A30,30,0,0,0,21,200.51c-8.79,0-10.12,9.81-6.83,16.54,3.59,6.16,10,13.65,16.88,11,7.77-2,1.76-16-5.2-10.69,2.72-2.67,7.79-1.33,9.27,2.58,2.11,3.43.25,9.14-4.34,10.16-4.1,1.84-9.1-.48-12.21-3.25a27.77,27.77,0,0,1-8.25-10.48c-1.32-4.39-2.34-9.52.44-14.36,3.08-4.88,9-5.9,13.81-5.73,9.68.6,19.94,5.28,25.88,13.89C61.64,226,59.91,245,69.09,257.85a36.11,36.11,0,0,1,4.55,2.9A33.31,33.31,0,0,1,71.56,256a33.71,33.71,0,0,1-1.37-23.65l.08-.44a47.83,47.83,0,0,1-8.35-27.07h0c0-1.09.06-2.17.12-3.24-8.59-4.52-15.31-13.68-19.77-22.53-3.35-6.75-4.64-16-.28-23.3,2-3.6,5.09-7.1,9.65-8.42,4.34-1.43,9.5.6,12.22,4.08a11.56,11.56,0,0,1,7.5-.29c4.4,1.54,7.46,4.74,9.87,8a31.14,31.14,0,0,1,3.07,5.14l.57-.36c.19-3.94,3.13-6.93,6-9.68a2.67,2.67,0,0,1,2.81-4.53,2.54,2.54,0,0,1,.8.68,8.42,8.42,0,0,0,1.31-2.46c.95-2.71-4.68-5.82-6.15-8.25a4,4,0,0,1,2.72-5.81c8.55-1.58,18.83,5.74,27.49.21l0,.09a36.15,36.15,0,0,0-.35,16.45A61.18,61.18,0,0,1,108,156.85c.61,0,1.22,0,1.84,0h0a48,48,0,0,1,16.22,2.82,32.31,32.31,0,0,1-2.2-4.43h0a32.37,32.37,0,1,1,60-24.27c.21.5.4,1,.58,1.53L195.72,127c3.42-1.44,6.9-2.8,10.4-4.07,4.9-3.23,8.2-7.22,8.38-12.4a10.13,10.13,0,0,0,4.33,5.43,9.87,9.87,0,0,0,4,1.58c-.65-6.37-2.26-14.79-6.19-20.91a3.18,3.18,0,0,1-.57-.05,3.11,3.11,0,0,1-2.51-3.7v0c-3.37-3.23-7.91-5-14-4,2.57,4.54,1.58,8.06-.85,9.44-.49,2.65-.91,5.16-.28,7.19.87,2.75,7.22,2,9.79,3.16a3.92,3.92,0,0,1,1.17,6.23c-6,6.35-18.66,6.31-22.52,15.86l-.09-.12a34.71,34.71,0,0,0-9.2-13.55c2.5-8,10-18.23,12.57-23.45a6.18,6.18,0,0,1,.36-3.24c-2.84.07-11.76,15.2-20,21.69a35.27,35.27,0,0,0-16.36-4.08l-.09-.12c5.06-4.66,4.75-11.54,5.13-17.91A29.66,29.66,0,0,1,145.41,84c2.4,7.65,0,17.94,7,23.81l-.12.09a35.24,35.24,0,0,0-15.77,4.61c-9-6.43-18.82-22.15-21.2-20.88-1.86,1.9,10.5,15.72,14.21,26.08a33.88,33.88,0,0,0-9,14.15l-.12.08c-4.21-9.38-16.84-8.89-23.09-14.91a3.84,3.84,0,0,1,1-6.24c2.5-1.35,8.83-.79,9.67-3.52,1.59-6.13-6-16.27,2.19-22.21,8-6.19,15.56,3.82,22,4,2.79,0,4.08-6.19,6-8.4a3.83,3.83,0,0,1,2.58-1.15,29.85,29.85,0,0,1-7-19.23h0a29.93,29.93,0,0,1,29.92-29.94h0a29.92,29.92,0,0,1,29.91,29.94h0a29.89,29.89,0,0,1-2.8,12.7,3.44,3.44,0,0,1,2.36-.39,3.38,3.38,0,0,1,2.5,2.09,4,4,0,0,1,3.68-1.34A4,4,0,1,1,197.82,81a3.9,3.9,0,0,1-2.95-2.68,3.33,3.33,0,0,1-3.06,1A3.42,3.42,0,0,1,189,76.13a30.41,30.41,0,0,1-14.36,12c6-1.31,12.93-10.27,20.7-4.73a11.39,11.39,0,0,1,1.18.91c2.69-1.67,5.77-2.79,8.44-2.46a35.42,35.42,0,0,1,4.4.9,2.81,2.81,0,0,1,0-1,2.73,2.73,0,0,1,3.21-2.18,2.7,2.7,0,0,1,2.07,3.19,2.79,2.79,0,0,1-.88,1.59c2.86,1.38,4.82,3.14,5.72,5.09-2-10.35,3.83-17.3,8.84-14.57s2.76,11.16-2.7,9a7.61,7.61,0,0,0,.35,5.9l.3,0a2.39,2.39,0,0,1,1.92,2.84v.05a10.1,10.1,0,0,0,1.58,1.14q1.55-2.94,3.34-5.83a4,4,0,0,1-.46-1.22c-1,1.26-2,2.52-3.06,3.82.89-1.17,1.91-2.57,3-4.15a4,4,0,0,1,0-1.32A4,4,0,0,1,235.49,82c8.09-12.73,18-32.38,15.42-45.57-2.51-12.76-13.74-16.34-23-12.93a8,8,0,0,1,5.5,2,8,8,0,0,1-10.58,12,7.89,7.89,0,0,1-1.67-9.87l-.3.27c10.22-20.08,41.61-25.77,40,2.42,4.79-9,10.86-9.08,16.91-6.36-10.57,4.26-2.83,19-15.28,30.68-3,2.68-6,5.63-9.14,8.81,10-9.34,21.56-16.68,33.16-20.09C312,36,338.55,45.22,353.73,56.23c11.5,8.3,15.1,16,26.53,9.34,3.52,8.26-2.94,19.42-14.11,18.66,5.6,9.63,11.74,32.23,3.19,51,2,0,4.05,0,6.06.06l1.18.07c13.2-1.6,25.46-12.09,29.34-29.2,9.24,12.67,6.55,27.48-5.8,33.14a98,98,0,0,1,15.59,5.86l-.46-.23c12.86,4,36.88,8.33,41.47-11.82-6.27.84-9.56-2.14-9.55-5.57.19-7.14,9-8.36,12.41-3.86,3,4.11,4.93,13,2.15,18-4.33,7.53-9.64,11.78-14.07,12,11.68,2.23,16.48,11.3,11.53,15.39s-12.84-1.81-8.28-6.61c-3.54-3.12-8.62-2.63-12.17.16,18.31,21.69,31.47,54.15,28.93,80.67-3,29.88-23.85,53.78-41.74,65.06-7.06,4.46-13,6.74-16.84,10l.81.81a75.44,75.44,0,0,1,8.4,10,25.19,25.19,0,0,1,12.5-3.3h0a25.33,25.33,0,0,1,25.31,25.33h0a25.35,25.35,0,0,1-24.31,25.32,75.19,75.19,0,0,1-75.06,71.07h0a75,75,0,0,1-53.15-22l-1.3-1.37A4.16,4.16,0,1,1,297,418a75.22,75.22,0,0,1-13.37-28.15c-2.77,1.46-5.76,2.15-9.08,0-7.73-4.56-2-14.05-4-19.38-.92-2.29-6.44-1.3-8.88-2.15a3.51,3.51,0,0,1-1.36-5.44c5-5.93,16.18-6.69,19-15.32l.11.07a30.61,30.61,0,0,0,4.33,6.83c.25-1,.52-2,.82-3.06ZM405.43,315l.16-.15.9-.79.88-.7.88-.7,1-.56,1-.56,1-.69,1.07-.54,1-.58,1.06-.54,1.06-.55,1.08-.54,1.08-.65,1.09-.65,1.19-.63,1.08-.65,1.19-.63,1.21-.74,1.61-1.08,1.59-1.1,1.63-1.18,1.61-1.2,1.54-1.3,1.66-1.4,1.67-1.4,1.57-1.53,1.57-1.52,1.6-1.62,1.61-1.73,1.51-1.74,1.51-1.75,1.54-1.86,1.43-1.87,1.45-2,1.34-2,1.26-2.11,1.34-2,1.18-2.25,1.16-2.14,1.07-2.26,1.07-2.26,1-2.28.88-2.41.88-2.4.68-2.44.68-2.45.58-2.46.5-2.58.36-2.5.29-2.63.25-2.42L463,238l-.06-2.48-.05-2.58-.16-2.5-.27-2.52-.26-2.62-.48-2.56-.45-2.66-.48-2.55-.67-2.7-.69-2.6-.78-2.61-.88-2.64-.89-2.64-.89-2.64-1.12-2.57-1-2.66-1.22-2.59-1.13-2.47-1.35-2.51-1.24-2.49-1.35-2.51-1.47-2.42-1.38-2.31-1.49-2.31-1.58-2.34-1.53-2.12-1.61-2.24-1.65-2-1.65-2L433.45,164l-1.06-1.17-1.17-1.19-1.27-1.21-1.27-1.2-1.39-1.13L425.9,157l-1.51-1-1.53-1-1.61-1.06-1.63-1L418,151.87l-1.76-.87-1.77-.87-1.86-.89-1.77-.87-1.88-.79-2-.82-1.91-.68-2-.71-2-.59-2-.61-2.13-.62-2-.49-2.15-.52-2.17-.41-2.18-.42-2.06-.4-2.18-.31-2.32-.23-2.22-.2-2.21-.21-2.22-.1h-1.71l-1.7-.1H370l-1.73.1h-1.62c-.64,1-1.31,2-2.05,3l5.07-.74,1.3-.08,1.3-.07,1.4-.06,1.49.07,1.58.09,1.6.09,1.67.21,1.79.23,1.78.24,1.86.35,1.84.46,2,.37,1.93.58,1.92.58,2,.71,2,.81,2.1.83,2,.91,2.06,1,2.05,1,2,1.24,2,1.24,1.86,1.43,2,1.45,1.85,1.53,1.81,1.74,1.79,1.85,1.68,1.82,1.65,2,1.61,2.24,1.51,2.22.7,1.31.72,1.32.7,1.32.6,1.4.5,1.27.6,1.4.36,1.46.49,1.38.36,1.47.27,1.45.26,1.44.15,1.42.14,1.53.05,1.41,0,1.51,0,1.38-.08,1.49-.27,1.45-.16,1.47-.39,1.43-.36,1.33-.48,1.41-.48,1.41-.67,1.27-.69,1.37-.77,1.24-.88,1.23-.88,1.23-1,1.1-1.19,1.17-1.15,1-1.15,1-.76.61-.72.4-.74.5-.81.37-.7.3-.71.4-.81.27-.68.2-.78.17-.79.17-.67.19-.77.06-.74,0-.66.08-.74,0-.75,0-.62-.12-.62-.12-.72-.14-.63-.12-.6-.22-.52-.09-.59-.23-.6-.22-.47-.31-.51-.2-.47-.31-.31-.06.08.12.71.78.61.76.73.67.84.59.86.59,1,.51,1,.4,1,.4,1.15.21,1.13.23,1.15.11h2.35l1.32-.18L417,219l1.24-.29,1.28-.52,1.17-.53L422,217l1.24-.85,1.14-1,1.17-1.06,1.18-1.17,1.11-1.29,1-1.52,1.06-1.62,1-1.75.91-2,.84-2.19.76-2.32.68-2.44,4.83-23.1,5.92,21.82.39,1.9.39,1.89.37,2,.27,2,.27,2,.15,2.07,0,2-.09,2.12-.08,2.13-.2,2.11-.19,2.11-.38,2.06-.42,2.18-.61,2-.62,2.14-.72,2.11-.93,2.07-.93,2.07-1.15,2-1.22,1.91-1.34,2-1.53,1.85-1.63,1.83L432.94,245l-1.83,1.69-2,1.65L426.94,250l-2.32,1.49-.12.09.6.22.62.12.62.12.73.14.62.12.64,0H429l.65-.08.57-.12.65-.09.69-.19.67-.2.69-.19.7-.29.62-.42.71-.39.74-.5.76-.61.65-.63.78-.71,23.61-25.52L446,254.15l-.87,1.76-1,1.52-1,1.52-1.12,1.39-1.22,1.37L439.47,263l-1.19,1.17-1.26,1-1.37,1-1.36.92L433,268l-1.44.8-1.34.81-1.39.59-1.43.7-1.37.48-1.39.6-1.38.48-1.37.39-1.36.38-1.36.39-1.26.41-1.33.27-.34,0,.5.21.39.18.5.21.52.1.51.09.52.1.52.1.52.09h.53l.52.1.64,0h.53l.65-.1h.55l.64,0,.65-.09L449.54,272,427.91,284.9l-.84.49-.87.58-.94.46-1,.46-1,.57-1,.46-.94.46-1,.45-1,.45-1.06.45-1,.44-1,.45-1.13.31-1,.45-1.13.33-1.13.33-1.24.29-1.13.33-1.22.19-1.23.31-1.22.19-1.3.08,8.54,4.1-10.43,4.65-.68.2-.8.27-.67.21-.79.17-.79.17-.88.15-.88.15-.86.05-1,.14-1,.13-1.08.11-1.08,0L391,304h-1.18l-1.19.1h-.09l1.33.63,9.69-1.24-2.36,5.36a76.48,76.48,0,0,1,8.29,6.14Zm-48.58-17.92-.7-.45-1.12-1-1-.82-1-1-1-1-.88-1-.86-1.12-.86-1.13-.63-1.2-.73-1.2-.62-1.3-.5-1.28-.41-1.25-.38-1.36-.26-1.44-.16-1.43-.15-1.43-.06-1.41.18-1.46.17-1.48.27-1.44.39-1.54.49-1.42.69-1.36.38-.88.5-.88.57-.75.57-.75.7-.83.67-.73.77-.71.76-.61.77-.71.87-.59,1-.56,1-.57.94-.47,1.16-.42,1-.34,1.22-.19,1.22-.2,1.27,0,1.29,0,1.32.36,1.32.35,1.27.67,1.14.76,1.1,1,1.08,1.06.86,1.13.67,1,0-.1.07-.42.1-.52,0-.43,0-.44-.12-.46-.14-.45-.12-.45-.23-.48-.23-.47-.34-.49-.34-.39-.34-.49-.46-.41-.56-.43-.46-.41-.66-.46-.66-.44-.69-.34-.79-.36-.81-.27-22.27-6.82,23-3.33.87,0,1-.13.88-.15.88-.15,1-.13.88-.15.9-.26.79-.18.9-.25.78-.17.81-.28.81-.27.69-.3.72-.4.72-.4.7-.3.63-.52.62-.42.53-.54.53-.54.55-.64.55-.65.47-.77.46-.77.49-.87.4-1,.43-1.1.33-1.22.34-1.22.28-1.45.27-1.44,0-.75v-.64l.15-.72,0-.75,0-.74,0-.74-.08-.76,0-.74-.07-.77.05-.85-.07-.76-.07-.76,0-.86-.08-.77-.15-.88-.08-.76L387,215l-.15-.89-.17-.79-.05-.86-.17-.79-.17-.79-.17-.78-.17-.79-.17-.78-.27-.81-.17-.78-.17-.79-.17-.78-.29-.7-.18-.79-.3-.7-.26-.91-.26-.8-.37-.93-.38-.82-.39-.82-.28-.7-.39-.82-.39-.72-.39-.73-.51-.74-.42-.61-.42-.62-.42-.61-.41-.61-.44-.51-.44-.52-.54-.53-.46-.41-.33-.49-.47-.31-.45-.41-.48-.3-.38-.29-.38-.28-.4-.18-.39-.18-.39-.18-.31-.06-.42-.08-.31-.06-.31-.06-.31-.06-.84-.05-.76.06-.66.09-.66.09-.55.1-.56.11-.46.13-.36.25-.34.15-.26.16-.24.17-.14.18-.15.19-.12.09-.14.18-.15.18-.06.32,0,.2-.15.19L365,191l0,.33-.06.32.05.32,0,.11.22,0,.69-.3.79-.17.78-.18.88-.15.78-.18.87,0,.76-.07.87,0,.95.07.85.05,1,.07,1,.3.89.39,1,.4,1,.61.92.82.81.8.65,1.09.45,1.05.43,1.15.21,1.11.2,1.22v1.18l-.12,1.16-.19,1-.2,1-.18.93-.28.92-.3,1-.38.89-.47.77-.49.88-.57.75-.57.75-.66.62-.65.63-.66.62-.73.5-.75.5-.71.4-.82.38-.72.4-.8.27-.72.4-.81.28-.8.27-.8.27-.81.28-.81.28-.89.26-.81.28-.93.35-.91.26-.9.26-.93.36-5.16,1.8-2.4-4.85-.4-.72-.29-.7-.43-.61-.31-.6-.33-.5-.33-.49-.35-.39-.35-.39-.38-.29-.27-.26.07.22.14,1,.13,1,0,1v1.08l-.09.95-.19,1-.2,1-.32,1.12-.4,1-.4,1-.52,1.08-.47.76-.6.86-.46.77-.58.85-.57.76-.57.74-.68.73-.57.75-.68.73-.68.73-.57.75-.68.73-.67.73-.68.73-.67.73-.57.75-.69.73-.67.73-.57.75-.58.75-.57.75-.58.75-.57.75-.57.76-.45.66-.47.76-.46.77-.37.79-.33.69-.38.79-.36.79-.24.7-.3,1-.28.91-.29,1-.18.93-.3,1-.17.94-.1,1.05-.2,1-.08.94-.09,1.06-.08.95-.09,1.06,0,1,0,1v1.08l0,1,0,1,.12,1,.14,1,.15.89.14,1,.13,1,.26.91.15.88.26.91.26.9.26.91.38.82.27.81.26.9.39.72.38.82,1,2a10.34,10.34,0,0,0,2.18,0,9.64,9.64,0,0,0,6.66-4.34c.1.07.21.15.31.13a9.77,9.77,0,0,0-1,5.81,10.7,10.7,0,0,0,4.52,7,11.13,11.13,0,0,0-5.92.58l.7.71,1.63,1.59,1.85,1.54,1.87,1.43,1.91,1.22,1.91,1.23,2,1.24h0c1.44-.08,2.88-.12,4.34-.12h.11Zm-12.41,1a50.23,50.23,0,0,1-8.34-7.25c-3.84,3-7.31,7.83-10.52,13a74.76,74.76,0,0,1,18.85-5.74Zm87.38,77.63c.05-.82.07-1.66.09-2.49a22,22,0,0,0,20.95-22.06h0a22,22,0,0,0-22.07-22.08v0h0v0a22,22,0,0,0-10.7,2.75l-1.37-2.06a24.39,24.39,0,0,1,12.06-3.16h0a24.55,24.55,0,0,1,24.54,24.55h0a24.56,24.56,0,0,1-23.51,24.55Zm.05-5.75c-.05-1.77-.17-3.52-.34-5.27a13.52,13.52,0,0,0,12.79-13.52h0a13.54,13.54,0,0,0-13.53-13.55h0a13.31,13.31,0,0,0-6.51,1.67c-.78-1.59-1.61-3.13-2.49-4.65a18.73,18.73,0,0,1,9-2.29h0a18.83,18.83,0,0,1,18.81,18.83h0A18.81,18.81,0,0,1,431.87,370Zm-.48-6.41a12.4,12.4,0,0,0,11.79-12.38h0a12.41,12.41,0,0,0-12.39-12.4h0a12.22,12.22,0,0,0-6,1.55l.34.74a11.46,11.46,0,0,1,5.67-1.48h0a11.58,11.58,0,0,1,11.57,11.59h0a11.55,11.55,0,0,1-11.08,11.57l.1.81Zm-.33-2.52a9.87,9.87,0,0,0,9.59-9.87h0a9.86,9.86,0,0,0-9.86-9.86h0a9.71,9.71,0,0,0-5,1.34A74.61,74.61,0,0,1,431.06,361ZM281.61,374.51c-2.4,4.58-4.28,8.16-3.38,8.92.73.3,2-1.18,3.73-3.48-.18-1.8-.3-3.61-.35-5.44Zm75.13,70.77a72.95,72.95,0,0,0,72.89-73h0a72.95,72.95,0,0,0-72.89-73h0a73,73,0,0,0-72.89,73h0a72.95,72.95,0,0,0,72.89,73h0ZM421.52,81.16h0A10.51,10.51,0,0,0,411,70.62h0a10.51,10.51,0,0,0-10.53,10.54h0A10.52,10.52,0,0,0,411,91.7h0a10.52,10.52,0,0,0,10.53-10.54Zm-1.56,0a9,9,0,0,0-9-9h0a9,9,0,0,0-9,9h0a9,9,0,0,0,9,9h0a9,9,0,0,0,9-9Zm3.35,0h0A12.31,12.31,0,0,0,411,68.84h0a12.31,12.31,0,0,0-12.31,12.32h0A12.31,12.31,0,0,0,411,93.48h0A12.31,12.31,0,0,0,423.3,81.16Zm-1,0A11.26,11.26,0,0,0,411,69.89h0a11.26,11.26,0,0,0-11.26,11.27h0A11.27,11.27,0,0,0,411,92.43h0a11.27,11.27,0,0,0,11.26-11.27Zm8.81,0h0A20.07,20.07,0,0,0,411,61.08h0a20.08,20.08,0,0,0-20.06,20.08h0A20.07,20.07,0,0,0,411,101.24h0a20.06,20.06,0,0,0,20.07-20.08Zm-3,0A17.12,17.12,0,0,0,411,64h0a17.12,17.12,0,0,0-17.1,17.12h0A17.13,17.13,0,0,0,411,98.28h0a17.13,17.13,0,0,0,17.1-17.12Zm-17.1,23h0a23,23,0,0,0,23-23h0a23,23,0,0,0-23-23h0a23,23,0,0,0-23,23h0a23,23,0,0,0,23,23Zm0-.7a22.32,22.32,0,0,0,22.31-22.33h0A22.32,22.32,0,0,0,411,58.83h0a22.32,22.32,0,0,0-22.31,22.33h0A22.32,22.32,0,0,0,411,103.49h0ZM131.85,204.83h0a22,22,0,0,0-22-22h0a22,22,0,0,0-22,22h0a21.94,21.94,0,0,0,22,22h0a21.94,21.94,0,0,0,22-22Zm-3.27,0a18.73,18.73,0,0,0-18.69-18.7h0a18.72,18.72,0,0,0-18.69,18.7h0a18.71,18.71,0,0,0,18.69,18.7h0a18.72,18.72,0,0,0,18.69-18.7h0Zm7,0h0a25.64,25.64,0,0,0-25.66-25.68h0a25.65,25.65,0,0,0-25.66,25.68h0a25.66,25.66,0,0,0,25.66,25.68h0a25.66,25.66,0,0,0,25.66-25.68Zm-2.18,0a23.52,23.52,0,0,0-23.49-23.5h0a23.52,23.52,0,0,0-23.48,23.5h0a23.5,23.5,0,0,0,23.48,23.5h0a23.5,23.5,0,0,0,23.49-23.5h0Zm18.36,0h0A41.84,41.84,0,0,0,109.89,163h0a41.83,41.83,0,0,0-41.83,41.87h0a41.82,41.82,0,0,0,41.83,41.87v0h0v0a41.82,41.82,0,0,0,41.84-41.87Zm-6.19,0a35.7,35.7,0,0,0-35.66-35.69h0a35.7,35.7,0,0,0-35.66,35.69h0a35.71,35.71,0,0,0,35.66,35.7h0a35.7,35.7,0,0,0,35.66-35.7h0Zm-64.82-38.1a25.43,25.43,0,0,0-7.94-10,8.35,8.35,0,0,0-6.57-1.59,27.43,27.43,0,0,1,2.64,8.77c.62,4.83-2.49,11-6.91,12.55-1.68.57-5.88.53-7.65-2.35a12,12,0,0,1-1.85-7.34A17.61,17.61,0,0,1,60,153.49a8.67,8.67,0,0,0-3.09-2.12c-6-2.2-11.63,4.23-13.36,10.38-2.06,6.24.17,13.23,3.33,19.15,3.57,6.66,8.82,13.93,15.4,18A47.93,47.93,0,0,1,76,170.87a47.15,47.15,0,0,1,4.77-4.16Zm29.16,84.67a46.56,46.56,0,0,0,46.53-46.56h0a46.55,46.55,0,0,0-46.53-46.56h0a46.56,46.56,0,0,0-46.53,46.56h0a46.56,46.56,0,0,0,46.53,46.56h0ZM177.34,60.22h0a13.7,13.7,0,0,0-13.69-13.7h0A13.69,13.69,0,0,0,150,60.22h0a13.69,13.69,0,0,0,13.69,13.71h0a13.69,13.69,0,0,0,13.69-13.71Zm-2,0a11.68,11.68,0,0,0-11.66-11.66h0A11.67,11.67,0,0,0,152,60.22h0a11.67,11.67,0,0,0,11.66,11.66h0A11.68,11.68,0,0,0,175.3,60.22h0Zm4.35,0h0a16,16,0,0,0-16-16h0a16,16,0,0,0-16,16h0a16,16,0,0,0,16,16h0a16,16,0,0,0,16-16Zm-1.37,0a14.65,14.65,0,0,0-14.64-14.66h0A14.66,14.66,0,0,0,149,60.22h0a14.66,14.66,0,0,0,14.65,14.66h0a14.65,14.65,0,0,0,14.64-14.66Zm11.45,0h0a26.13,26.13,0,0,1-19.33,25.24,6.68,6.68,0,0,0,2.06,2.44,29.12,29.12,0,0,0,20.2-27.68h0a29,29,0,0,0-29-29h0a29,29,0,0,0-29,29h0A29,29,0,0,0,142,79.59a3.74,3.74,0,0,1,2.35,1.88l.4.8a28.9,28.9,0,0,0,14.47,6.67c.07-1,.18-2,.32-2.92a26.09,26.09,0,0,1-22-25.8h0a26.08,26.08,0,0,1,26.09-26.11h0a26.08,26.08,0,0,1,26.08,26.11Zm-3.85,0A22.28,22.28,0,0,0,163.64,38h0A22.28,22.28,0,0,0,141.4,60.22h0a22.3,22.3,0,0,0,19.1,22c.14-.36.27-.73.44-1.07A4,4,0,0,1,167.26,80a9.38,9.38,0,0,1,1.27,1.91,22.3,22.3,0,0,0,17.35-21.73h0ZM306.33,435.73a2.43,2.43,0,1,1,2.06,3.06,3.28,3.28,0,0,1,1,3.27,3.41,3.41,0,1,1-6.62-1.66,3.34,3.34,0,0,1,4.06-2.4,2.43,2.43,0,0,1-.54-2.27ZM292.2,467.3a2.89,2.89,0,1,1,2.1,3.52,3,3,0,0,1-2.1-3.52Zm10.08,9.16a4,4,0,1,1,3,4.8,4,4,0,0,1-3-4.8Zm-9.75,5.24a2.32,2.32,0,0,1,2.89-1.73,2.43,2.43,0,0,1,1.84,2.91,2.52,2.52,0,0,1-3,1.8,2.42,2.42,0,0,1-1.7-3Zm-6.94,6.37a3,3,0,1,0,3.64-2.19,3,3,0,0,0-3.64,2.19Zm4.05,9.35a2.69,2.69,0,1,1,5.22,1.32,2.69,2.69,0,0,1-5.22-1.32Zm-5,6a2.12,2.12,0,1,1,4.12,1,2.12,2.12,0,0,1-4.12-1Zm-6.2,2.79a3.28,3.28,0,0,0-2.23-1.92,3.36,3.36,0,0,0-3.86,1.73,4.19,4.19,0,0,0-2.82-2.34,4.25,4.25,0,0,0-5.05,3.11,4.15,4.15,0,0,0,3,5,4.2,4.2,0,0,0,5-2.49,3.52,3.52,0,0,0,2.11,1.49,3.28,3.28,0,0,0,3.61-1.42,4,4,0,0,0,2.75,2.48,3.89,3.89,0,0,0,1.89-7.54,3.9,3.9,0,0,0-4.36,1.87Zm-18.74-6.3a2.07,2.07,0,0,1,2.51-1.5,2.1,2.1,0,0,1,1.6,2.54,2.12,2.12,0,1,1-4.11-1ZM253.24,503a2.95,2.95,0,1,1,5.71,1.44,2.95,2.95,0,0,1-5.71-1.44Zm-8.62,5.41a2.27,2.27,0,0,1,2.74-1.55,2.18,2.18,0,0,1,1.57,2.64,2.2,2.2,0,0,1-2.66,1.68,2.3,2.3,0,0,1-1.65-2.77Zm-8.83-2.22a3.47,3.47,0,1,1,2.46,4.25,3.47,3.47,0,0,1-2.46-4.25Zm-3.78-10a2.49,2.49,0,1,1,4.82,1.22,2.49,2.49,0,1,1-4.82-1.22ZM187,448c10.41-1.94,3.71-18-4.32-14.81A91.79,91.79,0,0,1,177.16,459l.08.28c3.53,8.9,14,16.12,21.53,7.78a38.5,38.5,0,0,0,11.44-28.52c-.4-12.41-6.39-22.85-12.83-33.16-5.1,1.51-10,2-17.37-2.88a96.93,96.93,0,0,1,2.82,28.43c4.22-.53,8.63,2.22,9.73,6,2.43,4.77-.67,10.72-5.54,11Zm88.71,17.33h0a21.83,21.83,0,0,0-8.62-11.14c-3.12-2.06-7.83-2.4-9.24,1.09-2.79,6.46,11.83,14.52,17.86,10.05ZM248.61,411c-17.61,9.77-14.63,32.32-9,48.37,2.87,8.11,7.56,16.23,15.23,19.65,7.3,3.65,18.24,3.84,21.32-3.71a11.08,11.08,0,0,0,.65-4.75,22.54,22.54,0,0,1-19-4.25,15.24,15.24,0,0,1-5.33-8.08c-1.19-4.15,2.37-8.16,4.36-9.25,5.3-2.83,13.78-.48,17.82,4.27a35.13,35.13,0,0,1,6,10.05,10.75,10.75,0,0,0,4.16-7.61c1-9.14-2.76-19.16-9-26.19-7.51-8.3-17.12-13.82-27.26-18.51ZM135.71,260.32c1.86,5.81-2.72,26.11,1,26.4,6.1.32,6.34-19.39-1-26.4ZM62.48,156.93c-5.75,1.14-8.78,13.84-3.59,15.61,2.76,1,5.05-1.88,5.49-4.77a17.12,17.12,0,0,0-1.9-10.84ZM293.9,427.47a2.53,2.53,0,1,1,1.89,3,2.52,2.52,0,0,1-1.89-3Zm3.73,21.22a3.27,3.27,0,0,0,2.4,4,3.38,3.38,0,0,0,4.12-2.39,3.46,3.46,0,0,0-2.49-4.15,3.34,3.34,0,0,0-4,2.5Zm5.44,6.39a2.31,2.31,0,0,1,2.86-1.61,2.37,2.37,0,0,1,1.75,2.78,2.41,2.41,0,0,1-2.88,1.73,2.35,2.35,0,0,1-1.73-2.9Zm.66,6.27a2,2,0,0,1,2.39-1.43,2,2,0,0,1,1.43,2.4,2,2,0,0,1-2.39,1.43,1.91,1.91,0,0,1-1.43-2.39ZM137.21,296.7a29.72,29.72,0,1,0,27.84,31.54,29.83,29.83,0,0,0-27.84-31.54ZM134.7,333h0a5.17,5.17,0,0,0-5.44,4.69,5.16,5.16,0,0,0,10.28.84A5.07,5.07,0,0,0,134.7,333Zm-13.2-12.47h0a5,5,0,1,0,4.52,5.37,4.94,4.94,0,0,0-4.52-5.37Zm10.81-17.09h0a6.25,6.25,0,0,0-6.66,5.87,6.28,6.28,0,1,0,12.54.8,6.29,6.29,0,0,0-5.87-6.67Zm18.34,12.69a5.73,5.73,0,0,0-6,5.39,5.68,5.68,0,1,0,11.33.78,5.82,5.82,0,0,0-5.32-6.17Zm45.9-20.46c-6.42,5.4-27.74,6.36-27.54,10.71.15,7.15,24.12-1.32,27.53-10.7Zm2.33,13.14c-4.94,3.32-25.77,4.53-25,8.15,1.21,5.89,20.25.73,25-8.15ZM30.47,426.4c14.87.17,39.13-6.54,58.81-24.73-.49,7.24,1.22,11.35,3.92,14.77V416L92.76,413l-.36-3.22-.2-3.14L92,403.48l0-3.22,0-3.22.19-3.13.28-3.3.36-3,.6-3.14.67-2.88.92-3,1-2.73,1.15-2.64,1.48-2.48,1.48-2.47,1.72-2.15,2-2,2.19-1.91,2.43-1.58,2.43-1.19,2.34-1,2.26-.86,2.34-.62,1.13-.22c-9.44-4.05-20.53,3.38-40.6,21.57,13.64-12,21-25.58,24.25-31.41,2.61-4.32,1.64-9.88-1.84-15.31l-1.4,2.72L98,336.79,96.45,339a2.28,2.28,0,0,1,1.92.17c9,4.62-14.11,17.62-24.32,11.55a15.51,15.51,0,0,0,8.23-2.64l-2.34.61-3.62.36-3.77-.13-4.25-.37-4-.85-3.92-1-3.45-1.17-3.36-1.32-3-1.32-3-1.32-3-1.32-2.55-1.31-2.64-1.16-2.64-1.15-1.44-.35c-8.28,6.66-14.63,13.92-16.71,19.52a34,34,0,0,0,38.12,11.56c-9.88,6.23-27.79,32-26.34,59.05Zm36.6-104.56c8.21-1.43,27,8.45,29.12,4.7,3.45-6.31-21.41-11-29.12-4.7Zm4.64-12.57c5.95-.17,24.41,9.13,25.57,5.69,2-5.85-17-11-25.57-5.69Zm23.65-35.36C92.1,285.39,111,304,113.05,294.17c1.19-5.46-15.31-10.72-17.69-20.24Zm86.08,103c-6.94-4.59-13.7-24.85-17.82-23.54-6.94,2.09,7.69,22.78,17.82,23.54Zm-12.14,5.89c-4.45-3.92-11.14-23.54-14.45-21.82-5.42,2.68,4.68,19.61,14.45,21.82ZM127.81,392c10.28-6.23,9.56-32.7,1.37-27-4.62,3.09,3.48,18.38-1.37,27ZM229.2,238a3.73,3.73,0,1,0-2.92,4.47A3.74,3.74,0,0,0,229.2,238Zm3.4,4.28a2.28,2.28,0,1,0-1.84,2.74,2.31,2.31,0,0,0,1.84-2.74Zm-6.32,11.89a2.24,2.24,0,1,0-4.39.86,2.28,2.28,0,0,0,2.63,1.77,2.24,2.24,0,0,0,.81-.35,3.07,3.07,0,1,0,5.94.35,3.07,3.07,0,0,0-5-1.78,2.07,2.07,0,0,0,0-.86Zm12.58,6.95a3,3,0,0,0-3.53-2.44,3.1,3.1,0,0,0-2.42,3.61,3,3,0,0,0,3.59,2.33,3,3,0,0,0,2.36-3.5Zm-3.17,6.62a2.09,2.09,0,0,0-2.43-1.72,2.12,2.12,0,0,0-1.69,2.52,2.1,2.1,0,1,0,4.12-.81Zm.51,5.51a1.79,1.79,0,0,0-2.08-1.41,1.84,1.84,0,0,0-1.4,2.1,1.77,1.77,0,0,0,2.08,1.39,1.71,1.71,0,0,0,1.4-2.08Zm11,4.88a2.57,2.57,0,1,0-2.06,3.06,2.56,2.56,0,0,0,2.06-3.06ZM237,284.78a3.59,3.59,0,1,0-2.87,4.28,3.57,3.57,0,0,0,2.87-4.28Zm7.38,7.12a2.19,2.19,0,0,0-2.61-1.67,2.11,2.11,0,0,0-1.69,2.52,2.19,2.19,0,0,0,2.53,1.79,2.28,2.28,0,0,0,1.77-2.63Zm4.6,7a2.75,2.75,0,1,0-2.21,3.29,2.72,2.72,0,0,0,2.21-3.29Zm27,49.77c-10.56,4.26-21.2,7.2-27.27,1a10,10,0,0,1-.46,8.28,8.94,8.94,0,0,1-4.24,4.07.33.33,0,0,1,.14.26,9.92,9.92,0,0,1,7.9.53,9.31,9.31,0,0,1,4.21,4.52c-.26-8.62,9.22-14.09,19.73-18.62Zm-.78-127.76a13.24,13.24,0,0,1,.44-3.47l-.48.28c-.29,1.19-.55,2.36-.79,3.54l.83-.36Zm22.4-6c-1.19-.22-2.39-.47-3.59-.74a9.4,9.4,0,0,1,.77,1.24l2.82-.5ZM296,218.64a11.55,11.55,0,0,1,.12,1.23,10.51,10.51,0,0,1-.08,2.34,10.13,10.13,0,0,1-9.13,8.88l-.1,0a8.69,8.69,0,0,0,3.66.49,9.78,9.78,0,0,0,7.75-4.94,10.74,10.74,0,0,0,1.43-6.18,11.3,11.3,0,0,0-.48-2.83l-3.18,1ZM187.72,132.48c3.69,2.05,7.56,1.9,11.46,1.1,7.4-6.5,17.18-6.93,24.18-.28a89.48,89.48,0,0,1-.5-10.16l-.93.18a11.29,11.29,0,0,0-.41,7.71c-2.93-3.45-7.11-4.77-12-4.81l-21.79,6.26Zm98.14,37,.66-.27a69.79,69.79,0,0,0-.11,9.32,103.93,103.93,0,0,1,25.28-25.44,22,22,0,0,0-3.38-.71c-8.08-1-12.28,6.21-9.29,10.76-6.34-9.12-6.51-13.84.07-20.94-6.35-7.22-8.65-12-15.45-10.7a38.09,38.09,0,0,0-.66,6c4,9.59,4.3,20.77,2.88,32Zm-5.28-36.73v-.2l-.08.06.08.14ZM278,129l.39-.25.94-.57,1-.38.7-.2c.14-.91.32-1.82.52-2.72l-.38.38-.66.51-.57.5-.64.6-.55.58-.55.59-.48.47,0,0,.36.46Zm-3.33-3.7a40.64,40.64,0,0,1,3.6-3.47,63.07,63.07,0,0,1,5.5-4.11c3.28-7.8,9.94-16,20.61-16.88,5.46-.57,11.56,1.77,14.48,6.73a14.22,14.22,0,0,1,1.87,9.4,70,70,0,0,1,4.48,7.25c-1.29-11.44,8.16-18.53,17.61-11.54-13.69,9.16-2.24,16.71,3.34,17,11.72.65,19-11.42,17.26-23s-8-24.13-10.49-26.38c-.26,5-.45,5.5-4.9,9.43-2.64-11.56-10.5-19.15-17.54-24.52,3.57,6.14,4.49,13.2-.62,19.14-5.6-7.74-12.83-21.83-29.22-22.52,12.23,4.26,12.89,15.36,9.5,22.3C291.33,65.71,270,71.89,257,82.06c16.94-3.38,27.38,2.92,31.47,11a4.45,4.45,0,0,1,1.24.06,4.22,4.22,0,0,1,.74,8.07,15,15,0,0,1-2.4,8.28c-7.57,11.38-17.15,11-21,7.74s-3.88-10.09,5.15-13c-1.23,10.23,6.7,6.48,7.42,3.87.88-3.3.72-8.41-4.89-11.88a18,18,0,0,0-3.79-1.75,3.45,3.45,0,0,1-5.86-.91c-8,0-16.21,4.89-21.42,11.9a42.08,42.08,0,0,0-5.34,9.81c11.31-1,24.09.15,33.28,7.32a37.62,37.62,0,0,1,3.14,2.74Zm-41.34-9.48.27-.82.83-2.07.92-2.09.95-2,1.12-2,1.31-2.07.92-1.37a3.25,3.25,0,0,1-1.09,0,2.88,2.88,0,0,1-2.34-3.45,2.9,2.9,0,0,1,5.74.55l.63-.76.95-1,.88-.84,1-.95,1.09-.79,1-.85,1.08-.78,1.1-.7,1.1-.69,1.12-.6.8-.41A2.46,2.46,0,0,1,255.17,91h0l.21-.09,1.15-.42,1.24-.43,1.28-.25,1.26-.35,1.3-.15,1.2-.15,1.32-.07,1.32-.07,1.12.12a3.39,3.39,0,0,1,2.26-.36,3.57,3.57,0,0,1,1.57.76,2.45,2.45,0,0,1,0-1,2.57,2.57,0,0,1,3-2,2.49,2.49,0,0,1,2,3,2.57,2.57,0,0,1-1,1.59l.16.07,1.16.63,1.19.63.74.43.57.45.65.45.58.55.48.48.57.46.48.57.39.5.4.58.39.59.39.5,0,.06a2.5,2.5,0,0,1,2.61,3,2.68,2.68,0,0,1-1,1.68l.1.55,0,.56.1.46v1.13l-.09.5v.47l-.09.5.05.27.08-.11.41-.85.41-.74.33-.83.19-.89.21-.9.1-1v-1.56a4.22,4.22,0,0,1-1.3-3.89,4.58,4.58,0,0,1,.19-.61l-.33-.8L284,94l-.66-.92-.65-.91-.84-.88-.82-.79-1-.85-1.1-.73-1.17-.62-1.25-.61-1.36-.59-1.43-.48-1.59-.36-1.68-.34-1.75-.22-1.92-.1-2.09,0-2.16.14-2.23.24-20.58,3.66,16-12.08,1.43-.94,1.43-.95,1.52-1,1.54-.88L263.1,73l1.65-.8,1.67-.7,1.78-.64,1.78-.63,1.79-.55,1.79-.54,1.84-.36,1.92-.37,1.86-.18,2-.19,2-.1,2,.08,2,.08,2,.27,2,.38,2.08.44,2,.65,2,.74,2.06.83,2,.95,2,1.12,2,1.21,2,1.43.11.06,0-.57-.1-.55-.12-.55-.12-.64-.1-.55-.2-.53-.2-.53-.29-.51-.27-.42-.29-.52-.38-.49-.38-.5-.39-.5-.47-.47-.54-.37-.58-.46-.66-.44-.74-.43-.72-.33-.85-.4-28.77-11,31.23,2.25,1.74.14,1.59.35,1.59.35,1.52.46,1.53.56L312,60l1.36.59,1.27.7,1.3.79,1.2.8,1.12.83,1.12.92,1.12.83.94,1,1,.94.86,1,.94,1,.86,1,.76,1,.77,1,.76,1,.75.9.67,1,.15.26V75l0-.38v-.48l-.09-.45-.09-.46-.09-.46-.09-.46-.09-.45-.19-.45-.09-.46-.2-.53L327.9,70l-.29-.52-.18-.44-.2-.54-.29-.51L316.05,48.78l17.76,13.54.68.54.76.52.7.63.69.62.79.61.69.62.7.62.7.72.71.72.7.72.72.72.7.71.64.83.71.71.64.82.63.83.65.92.64.82.56.94.65.92.57.93.5,1,.54-8.38,7.27,7,.38.49.49.57.39.5.4.58.4.59.42.69.41.67.33.7.44.77.44.77.46.86.37.88.45.87.38,1,.48,1,.38,1,.38,1,.5,1,.39,1.06.4,1.06.31,1.08.41,1.16.31,1.08L366,98l.33,1.17.31,1.08.31,1.17.24,1.19.24,1.19.22,1.19.24,1.19.15,1.3.05,1.23.07,1.31,0,1.25-.14,1.26-.14,1.27-.13,1.26-.31,1.3-.25,1.19-.42,1.22-.35,1.12-.53,1.15-.54,1.16-.56,1.06-.64,1.09-.65,1.08-.77.91-.75,1-.87.93-.88.84-.89.75-1,.76-1.1.69-1.12.6-1.12.6-1.14.5-1.26.35-1.27.34-1.28.25-1.38.18-1.32.07L346,134l-.86,0-.88-.11-.81-.23-.81-.22-.91-.3-.82-.32-.85-.4-.74-.42-.84-.41-.76-.52-.79-.61-.78-.61-.7-.63-.73-.81-.62-.73-.57-.94-.56-.93-.4-1.06-.4-1.07L332,122.5l-.14-1.2L332,120l.25-1.19.42-1.23.52-1.24.64-1.07.58-.88-.09,0-.37.06-.46.09-.34.16-.36.17-.33.26-.33.25-.33.26-.32.34-.31.35-.29.43-.21.42-.28.44-.2.52-.16.6-.18.51-.15.7-.15.7-.05.67,0,.77.05.75,1.68,19.8a112.44,112.44,0,0,1,33.12-7.27l.6-1.12.84-2,.78-1.86.64-2,.56-2,.37-2,.38-2,.36-2.07.16-2,.09-2,.06-2.11-.1-2-.1-2-.12-2.06-.28-1.94-.27-1.85L368,102.5l-.45-1.82L367.14,99l-.43-1.72-.53-1.7L365.69,94l-.58-1.51-.57-1.41L364,89.78l-.52-1.22-.6-1.12-4.4-7.88,8.71.28.76-.05.65,0,.63-.13.64-.12.63-.22.53-.2.52-.29.5-.29.52-.29.51-.29.5-.38.39-.46.39-.37.39-.45.37-.55.29-.44.27-.53.28-.53.19-.51.27-.53.09-.58.18-.52.06-.21-.19,0-1.18.23-1.11.22-1.13,0-1.13,0-1.15-.06-1.08-.17-1.09-.26-1-.28-.94-.39-1-.48-.94-.48-.87-.5-.84-.49-.79-.61-.79-.61-.88-.59-.81-.7-.77-.6-.81-.7-.81-.7-.8-.7-.89-.68-.9-.68L354,62l-.9-.68-.9-.77-1-.76-1.43-1-1.42-1-1.52-.94L345.3,56l-1.59-.83-1.69-.9-1.7-.91-1.78-.79-1.77-.79L334.92,51,333,50.22,331,49.55l-1.94-.67-2-.65-2-.56-2.1-.54-2.09-.45-2.16-.33-2.09-.44-2.23-.23-2.14-.25-2.21-.13-2.22-.14-2.2,0-2.27.07-2.27.06-2.24.24-2.22.25-2.22.34-2.28.45-2.18.52-2.25.63-2.07.6-2,.67-2,.87-2.1.89-2,1-2,1L273.5,53.8,271.56,55l-2,1.25-1.94,1.23-2,1.45-1.91,1.42-1.89,1.51-1.88,1.6L258,65.12l-1.87,1.61-1.75,1.76-1.85,1.7L250.85,72,249.2,73.8l-1.62,1.93-1.64,1.84-1.62,1.94-1.51,2-1.43,1.9-.91,1.28a3.89,3.89,0,0,1,.1,1.93A4.06,4.06,0,0,1,237,90l-1,1.53-1.13,2-1.12,2-1.11,2.12-.6,1.27-.59,1.35-.58,1.45-.57,1.44-.46,1.52-.46,1.52-.36,1.59-.36,1.59-.33,1.68-.25,1.66-.33,1.69-.14,1.74,0,.63c1.91-.37,3.8-.7,5.73-1Zm-6.08,6.55v2.82l.07,1.79.08,1.88.18,1.87.18,1.87.19,2,.27,1.85.29,1.94.38,1.93.37,1.92.36,1.84.47,1.9.53,1.82c.47-.64,1-1.27,1.47-1.87l-.07-.24-.32-1.64-.23-1.67-.35-1.73-.15-1.78-.16-1.77-.08-1.89v-3.89l.1-1.93.17-2,.18-2,.35-2.07.25-1.48c-1.51.19-3,.4-4.49.64Zm9.15-1.12a54.25,54.25,0,0,0-.55,21,23.24,23.24,0,0,1,7.87-4.16c8-2.55,16.26-1,23.06,2.15.45.18.91.39,1.35.61-.51-2.88.34-6.22,2.23-9.62a29.22,29.22,0,0,0-3.23-2.93c-8.81-6.69-19.79-7.86-30.73-7Zm37,13.71-.11.3-.29.44-.1.5-.17.51-.1.49-.1.4-.12.4,0,.39,0,.39,0,.39.05.27.07.37.05.27.05.28.06.27.24.72.3.6.29.52.29.51.28.42.27.43.26.33.33.22.24.24.21.15.22.15.21.05.2.06.11.08.2.06.2.06.28-.06.18,0,.21.06.27-.06.26-.15.28-.06.17-.1-.19-.57-.15-.15-.4-.58-.4-.59-.42-.68-.39-.58-.33-.7-.31-.61-.33-.7-.26-.81-.22-.71-.26-.81-.09-.86c-.31-.51-.63-1-1-1.49Zm5.81,14.21-.27.09.39.47-.12-.56Zm.82,6a30,30,0,0,0-5.73-6,7.74,7.74,0,0,1-3.07-2.16,33.32,33.32,0,0,0-7.86-3.61,31.94,31.94,0,0,0-7.06-1.53c-9.67,10.57-4.5,19.76.2,24.17,1.22-5.38,5.28-8,9.51-9.67,3.28,12.38,8.59,17.63,11.68,21.3a37.31,37.31,0,0,1,2.83-4.1,149.06,149.06,0,0,0-.51-18.44Zm0,27.26-1.65,2.84-4.29-5-.28-.43-.35-.31-.36-.4-.37-.4-.36-.4-.38-.5-.38-.49-.39-.49-.47-.48-.41-.59-.39-.58-.49-.57-.4-.59-.41-.67-.42-.68-.51-.66-.44-.77-.43-.78-.43-.77-.46-.86-.34-.79-.47-1-.45-.86-.37-1-.38-1-.4-1.06-.17-.35-.33.25-.4.37-.39.45-.31.35-.28.53-.28.44-.19.51-.25.62-1.36,5c2.06,2.79,3.42,6.81,1.88,10.65-1.17,3.17-3.7,5.23-6.39,6.77l.81.73.94,1,1,.94,1,.84,1.77,1.43,0,0,1.8,1.46,1.86,1.25.44.31a11.87,11.87,0,0,1,10.71.62c1.15-2.51,2.46-5.08,3.9-7.69.25-2.43.46-4.87.65-7.31Zm9.56,25a13.33,13.33,0,0,1,7.29,2.83l.29.06,1.89.39,2,.37,1.85.21,1.77.32,1.85.21,1.83.12,1.75.23,1.73,0,1.73.14H314a10.59,10.59,0,0,1,2.59-2.6l1.12-2.78-.59-.16-1.4-.39-1.44-.48-1.25-.61-1.25-.61-1.18-.71-1.21-.81-1-.85-1-.84-1-.94-.36-.36c-5.72.61-12,2.83-16.24,7.24Zm-24.4-5q-1.27-.79-2.52-1.64a9.91,9.91,0,0,0-1.19,1.39c-2.94,4.16-2.1,9.89,1.79,12.56a6.88,6.88,0,0,0,3,1.31l-.11,0a9,9,0,0,1-1.78-12.56,9.17,9.17,0,0,1,.85-1Zm8.67-2.83a8.29,8.29,0,0,0-6.84-1.24l1,.66,1.31.78a8.92,8.92,0,0,1,4.48-.19Zm-50.83-82a63.55,63.55,0,0,1,3.56-16.94c-1.72,4.31-3,9.28-3.56,16.94ZM83.58,153a2.62,2.62,0,0,0,3.58-1,2.69,2.69,0,0,0-1.09-3.62,2.64,2.64,0,0,0-3.55,1.13A2.56,2.56,0,0,0,83.58,153Zm-.82-6.5a1.8,1.8,0,0,0,2.44-.8,1.86,1.86,0,0,0-.68-2.48A1.89,1.89,0,0,0,82,144a1.83,1.83,0,0,0,.76,2.52Zm-3.26-3.68a1.54,1.54,0,0,0,2.08-.63,1.59,1.59,0,0,0-.63-2.08,1.54,1.54,0,0,0-2.08.63,1.49,1.49,0,0,0,.63,2.08ZM70,146.34a2.27,2.27,0,1,0-.92-3.07,2.31,2.31,0,0,0,.92,3.07Zm0-10.64a3.12,3.12,0,1,0,2.95-5.49A3.12,3.12,0,0,0,70,135.7Zm-8.15,2.88a1.82,1.82,0,0,0,2.51-.76,1.9,1.9,0,0,0-.72-2.59A2,2,0,0,0,61,136a1.89,1.89,0,0,0,.84,2.55Zm-7.33.67a2.35,2.35,0,1,0-1-3.18,2.35,2.35,0,0,0,1,3.18ZM51.24,132a2.1,2.1,0,0,0,2-3.7,2.1,2.1,0,0,0-2,3.7Zm-6.11-.25a1.66,1.66,0,1,0,1.57-2.92,1.63,1.63,0,0,0-2.19.66,1.65,1.65,0,0,0,.62,2.26Zm-4.88,2.13a3.07,3.07,0,0,0,3.38-1.56,3,3,0,0,0-5.35-2.86,3.1,3.1,0,0,0,0,2.9,2.56,2.56,0,0,0-2.72,1.32,2.74,2.74,0,0,0-.24,2,3.28,3.28,0,0,0-2.74,5.94,3.27,3.27,0,0,0,4.59-4.14,2.61,2.61,0,0,0,3-1.33,2.51,2.51,0,0,0,.06-2.3ZM34,148a1.66,1.66,0,0,0,1.57-2.92A1.66,1.66,0,1,0,34,148Zm-5.16,2.1A2.31,2.31,0,1,0,31,146,2.26,2.26,0,0,0,28,147a2.28,2.28,0,0,0,.89,3.14Zm-7.66,2.14a1.78,1.78,0,0,0,2.34-.76,1.74,1.74,0,0,0-3.06-1.64,1.79,1.79,0,0,0,.73,2.41Zm-3.36,6.28a2.71,2.71,0,1,0-1.16-3.66,2.71,2.71,0,0,0,1.16,3.66Zm3.8,7.46a1.94,1.94,0,0,0,1.83-3.43A1.94,1.94,0,1,0,21.65,166ZM204.11,81.17a2.1,2.1,0,0,0,2.46-1.67,2.11,2.11,0,1,0-4.13-.79,2.11,2.11,0,0,0,1.67,2.46Zm-26,92.72c7.66,10.36,13.85,21.19,8.74,29.44a12,12,0,0,1,9.23-1.78,11,11,0,0,1,5.65,3.54c0-.09.15-.18.27-.27a10.86,10.86,0,0,1-1.75-8.8A11.37,11.37,0,0,1,204,190.2c-9.31,2.73-18-6.12-25.92-16.31Zm-61.82-41.6c-12.32-4-23.57-9-24.4-18.71a11.87,11.87,0,0,1-6.34,6.84,10.94,10.94,0,0,1-6.62.46c0,.09,0,.2-.06.3a10.58,10.58,0,0,1,6.83,13.1c6-7.66,18.2-5.53,30.59-2Zm24.81,16a13.82,13.82,0,1,0,7.59-18,13.86,13.86,0,0,0-7.59,18Zm-13,5.24c.21.58.52,1.18.74,1.76a21.22,21.22,0,0,1,3.79-.79,18.45,18.45,0,0,1,19.92,16.35,22.64,22.64,0,0,0,4.74-.16,22.17,22.17,0,0,1,.51-3.76,18.59,18.59,0,0,1,22-13.6A32.81,32.81,0,0,0,181,149a22.3,22.3,0,0,1-3.32-1.71,18.55,18.55,0,0,1-5.6-25.19,21.56,21.56,0,0,0-4.34-3.08,14.41,14.41,0,0,1-2.64,2.61,18.41,18.41,0,0,1-25.7-2.34,27.66,27.66,0,0,0-4.39,3.35,20.67,20.67,0,0,1,1.73,3.33,18.51,18.51,0,0,1-9.82,24c.32,1.13.73,2.4,1.15,3.54ZM272.71,3.17A3.92,3.92,0,1,0,265,4.67a3.92,3.92,0,1,0,7.69-1.5Zm3.19,13.35a2.15,2.15,0,1,0-1.7,2.52,2.12,2.12,0,0,0,1.7-2.52Zm7-5.76a2.7,2.7,0,1,0-2.14,3.18,2.7,2.7,0,0,0,2.14-3.18Zm7.51-.52a2.15,2.15,0,1,0-1.7,2.52,2.13,2.13,0,0,0,1.7-2.52Zm3.45,3.6a1.58,1.58,0,1,0-1.25,1.87,1.63,1.63,0,0,0,1.25-1.87Zm.76,7.75a2.24,2.24,0,1,0-1.76,2.63,2.26,2.26,0,0,0,1.76-2.63Zm4.6,2.14A2,2,0,1,0,297.71,26a1.92,1.92,0,0,0,1.55-2.31Zm2.23,5.08a2.08,2.08,0,0,0-2.4-1.63,2.1,2.1,0,1,0,2.4,1.63Zm9-5a2.84,2.84,0,0,0-3.3-2.31,2.91,2.91,0,0,0-2.28,3.41,2.83,2.83,0,0,0,3.38,2.19,2.75,2.75,0,0,0,2.2-3.28Zm2,5.71a1.91,1.91,0,1,0-1.55,2.3,1.89,1.89,0,0,0,1.55-2.3Zm7.38-5.93a3.77,3.77,0,0,0-7.4,1.46,3.77,3.77,0,1,0,7.4-1.46Zm2.38,7.72a1.68,1.68,0,1,0-1.33,2,1.67,1.67,0,0,0,1.33-2Zm5.38,4.16A3.32,3.32,0,1,0,325,39.42a3.32,3.32,0,0,0,2.65-3.95Zm5.77,4.29a2.84,2.84,0,0,0-5.57,1.09,2.84,2.84,0,0,0,5.57-1.09Zm10.8,10.44c.43-.57.82-1.14,1.2-1.7l-.43-.32a18.75,18.75,0,0,1-.77,2ZM236.63,81.87l.49,0c1.3-1.82,2.67-3.61,4.07-5.38-1.51,1.74-3,3.52-4.56,5.35Zm23.23,19.9a3.42,3.42,0,0,0,4-2.66A3.5,3.5,0,0,0,261.14,95a3.41,3.41,0,0,0-4,2.78,3.32,3.32,0,0,0,2.68,3.94ZM248.3,93.88a2,2,0,0,0,2.34-1.59A2.08,2.08,0,0,0,249,90a2,2,0,0,0-2.34,1.59,1.93,1.93,0,0,0,1.59,2.34Zm51.39,23.21c0,9,13.2,10,15.71,2.46a8.84,8.84,0,0,0,.55-1.53l-.26-.3-.48-.48-.57-.46-.57-.46-.46-.47-.65-.35-.55-.37-.62-.26-.62-.26-.7-.24-.72-.24L309,114l-.78-.13-.88-.12h-2l-1.11.12-1.12.12-1.27.25-1.29.25-.62.21-.53.21-.64.12-.64.22-.62.22-.62.22-.61.31-.63.21-.6.31-.71.23-.61.31-.6.31-.69.33-.61.31-.68.42-.61.31-.61.31-.67.42-.58.4-.7.33-.5.34a39.65,39.65,0,0,0-2.64,6.37l.93-.09.86,0,.79.13.88.11.81.22.8.22.73.33.73.34.73.33.65.44.66.45.57.46.58.55.56.46.49.57.57.46.5.57.49.57.49.57.48.56.5.57.52.66.49.57.6.64.52.66.51.66.6.64,3.19,3.66-3.2,3.58-.45.57-.48.47-.38.55-.38.45-.29.44-.29.44-.21.42-.21.42-.11.4-.13.31.16-.12.77-.44.76-.44.79-.34.88-.36.81-.25.91-.18.92-.18,1-.1h1.9l1.06.08.79.13.89.2.79.13.89.21.8.22.82.22.82.32.8.22.82.32.12,0q2.24-1.38,4.63-2.66a91.77,91.77,0,0,1,9.87-4.51l-10-17.18-.34-.7-.44-.77-.41-.67-.42-.68-.4-.7-.39.62c-6.55,9.69-21.53,2.86-18.85-5.63Zm15.39-5.48A10.49,10.49,0,0,0,302.37,107a23.42,23.42,0,0,0-8.76,5.33,41.19,41.19,0,0,1,5.79-2c7-1.79,12-.87,15.68,1.34ZM247.21,187A100.19,100.19,0,0,1,231,161.82c-1.71,11.65,6,25.61,16.23,25.19Zm-5.48-18.67c1.89-2.78,5.1-3.59,8.37-3l-.25-.41-.53-.75-.45-.87-.44-.77-.36-.87-.38-1-.36-.88-.2-1-.28-1-.2-1-.12-1.12,0-1,0-1.13-.37.55-.26.62-.27.53-.36.64-.28.53-.26.62L241,166l-5-8.62-.48-1-.49-1-.51-1.14-.43-1.25v0c-.4.69-.77,1.41-1.1,2.14l.47,1.43.57,1.42.65,1.39.56,1.41.65,1.39.74,1.37.65,1.4.73,1.28.74,1.37.74,1.37.73,1.29.82,1.27.81,1.26.83,1.36.89,1.16.82,1.26.91,1.25.9,1.16.89,1.15,1,1.23.88,1.06,1,1.14,1,1,1,1.14.12.14.45-.24c7.16-1.87,7.54-7.74,4.86-12.56L253,168.75l-.58-.55-.49-.57-.38-.49c-3.13-1.61-6.74-1.7-9.8,1.2Zm12.46-26.58a23.22,23.22,0,0,0-11.39,2.44,19.51,19.51,0,0,0-5.52,4.27,32.92,32.92,0,0,0,3,7.46c2.66-6.58,7.37-12.58,13.89-14.17ZM326,186.27c-5.82-1.84-12.41-2.69-18,.39a33.31,33.31,0,0,1,7.32,10.62,12,12,0,0,1,6.71-9.92,11.66,11.66,0,0,1,4-1.08Zm-10.47,14.52a19.93,19.93,0,0,0-2.63-.56,18.6,18.6,0,0,0,2.88,1.5,9.57,9.57,0,0,1-.25-.94Zm3,.28a9.46,9.46,0,0,1,17.67-4.9l0,.09a7.82,7.82,0,0,0-.82-3.17,9.05,9.05,0,0,0-12.17-3.89c-4.7,2.16-6.8,7.52-4.7,11.87Zm-4,16.19a7.91,7.91,0,0,0,6.21,9.34c4.39,1,8.82-1.54,9.73-5.62a5.83,5.83,0,0,0,.1-2.87l0,.09a8,8,0,0,1-9.73,5.62,8.16,8.16,0,0,1-6.33-6.56Zm165.27,33a4.43,4.43,0,1,0-3.51-5.18,4.44,4.44,0,0,0,3.51,5.18Zm20.35-6.74a2.42,2.42,0,1,0-1.92-2.83,2.38,2.38,0,0,0,1.92,2.83Zm-4.74,9.81A3.06,3.06,0,1,0,493,249.7a3.07,3.07,0,0,0,2.43,3.58Zm0,10.19a1.79,1.79,0,1,0-1.43-2.09,1.84,1.84,0,0,0,1.43,2.09ZM487,261a2.53,2.53,0,1,0-2-3,2.56,2.56,0,0,0,2,3Zm-4.17,3.93a2.22,2.22,0,1,1,2.58-1.76,2.16,2.16,0,0,1-2.58,1.76Zm-6.25.2a2.37,2.37,0,0,0,.88-4.66,2.37,2.37,0,1,0-.88,4.66ZM478,276.66a3.2,3.2,0,0,0,3.79-2.49,3.29,3.29,0,0,0-2.6-3.82A3.19,3.19,0,0,0,475.5,273a3.09,3.09,0,0,0,2.52,3.69Zm-6.8-.33a2.15,2.15,0,1,0-1.76-2.58,2.15,2.15,0,0,0,1.76,2.58Zm3.09,10.25a4.27,4.27,0,0,0,1.59-8.39,4.27,4.27,0,1,0-1.59,8.39Zm-9.07-.77a1.9,1.9,0,1,0-1.5-2.21,1.9,1.9,0,0,0,1.5,2.21Zm-6.63,3.88a3.74,3.74,0,1,0-3-4.43,3.77,3.77,0,0,0,3,4.43Zm-6.93,4.26a3.21,3.21,0,0,0,1.21-6.31,3.21,3.21,0,0,0-1.21,6.31Zm-33-147.29A69.57,69.57,0,0,1,433,156.59a58.91,58.91,0,0,0-14.32-9.93Zm60,45.55a9.14,9.14,0,0,0,12.09,4,9,9,0,0,0-8.07-16.12,9.14,9.14,0,0,0-4,12.1ZM361.4,146.86a41.71,41.71,0,0,1-26.72,12c-5.86.27-11.68-1.87-17-3.8l-.94.64-2.21,1.4-2,1.44-2,1.55-1.91,1.56-1.91,1.57L305,164.85l-1.82,1.69-1.73,1.71L299.8,170l-1.61,1.73-1.51,1.75-1.51,1.75-1.43,1.87-1.41,1.77-1.3,1.79-1.32,1.89-1.2,1.81-.82,1.25a16.3,16.3,0,0,0,5,7.89,31.05,31.05,0,0,1,9-12,13.86,13.86,0,0,0,.3,2.72l4.73-2.44,1.17-.52,1.15-.43,1.24-.3,1.24-.31,1.12-.21,1.22-.2,1.19-.09h3.53l1.17.12,1,.19,1.15.11,1.14.22,1,.29,1,.2,1,.3,1,.3.3.06-.16-.24-4.74-6.05,7-2.43.57-.11.46-.23.58-.22.57-.2.57-.22.67-.19.69-.19.68-.2.7-.29.79-.17.78-.18.8-.27.79-.17.88-.15.88-.15.9-.26,1-.13,1-.13,1-.14L345,169l1,0,1.19-.1,1.09-.11h2.35l1.29,0,.43,0-.14-.46-.21-.57-.31-.6-.24-.48-.43-.51-.34-.49-.46-.41-.54-.53-7.4-5.59,8.33-3.77.82-.38.81-.28.89-.25.93-.36,1-.24.88-.15,1-.24,1.09-.11,1-.14h3.31l1.13.22,1.17.11,1.13.21,1.22.34,1.1.42,1.2.45-.41-.61-.55-.53-.44-.52-.52-.64-.44-.51-.54-.53-5-4.82Zm-57.45,42.81a28.24,28.24,0,0,0,3.35,5.38h.27l.87-.05-.33-.49-.49-.85L307,193l-.5-.73-.63-.66-.63-.66-1.29-1.28Zm95.15,8.57.4-.46,1.93-1.13,1.94-.59-.1,0-.11,0h-.09l-.19-.14-.11,0-.1,0-.23.06-.09,0-.21,0-.22.06-.1,0-.22.06-.22.06-.13.09-.25.17-.22.07-.12.08-.24.17-.15.18L400,197l-.27.27-.15.29-.27.27-.16.29,0,.1Zm-38.17-57.55-1.26.17-1.75.2-1.74.21-1.67.21-1.67.33-1.67.32-1.77.31-1.59.44-1.67.33-1.69.42-1.58.44-1.6.46-1.7.53-1.48.47-1.61.55-1.49.58-1.61.55-1.49.57-1.41.59-1.51.68-1.43.7-1.39.59-1.43.69-1.32.72-.78.45.21.08.82.31.81.22.81.22.8.22.8.22.81.22.81.22.69.15.79.13.79.13.76,0,.68.05.77,0,.76,0,.66,0,.93-.09.84-.07.94-.08.82-.17.94-.09.81-.16.9-.27.91-.18.82-.25.89-.27.81-.26.9-.27.78-.35.78-.34.88-.36.79-.34.79-.35.76-.44.77-.43.69-.42.76-.44.77-.44.66-.51.67-.42.66-.51.66-.51L356,146l.55-.58.57-.49.65-.52.46-.56.55-.58,1.47-1.72.66-.81Zm-65.13,56.82.52-.22,1.38-.49,1.47-.37,1.46-.35,1.36-.39.3-.06-.15-.2-.7-1.1-.59-1.12-.59-1-.5-1.14-.33-.7-.29.44-.54.67-.34.73-.44.66-.33.73-.33.73-1.36,3.19Zm-23.66-82.84-.52-.19-1.56-1.21-1.13-1.4,0,.09,0,.09,0,.09-.05.2,0,.09,0,.09.13.17,0,.09,0,.18.13.17,0,.09.14.16.12.17.1.08.22.15.12.16.12.08.21.14.21.06.31.13.31.13.29,0,.31.12.3,0Z" fill-rule="evenodd" fill="url(#GradientFill_1)"/><path d="M256,428.62c95.07,0,172.62-77.55,172.62-172.61S351.07,83.39,256,83.39,83.38,160.93,83.38,256,160.92,428.62,256,428.62Z" fill="#fff" fill-rule="evenodd"/><path d="M256,431.28h0A175.26,175.26,0,0,0,431.27,256h0A175.29,175.29,0,0,0,256,80.73h0A175.27,175.27,0,0,0,80.73,256h0A175.26,175.26,0,0,0,256,431.27h0Zm0-5.31v0h0v0A170,170,0,0,1,86,256h0A170,170,0,0,1,256,86h0A170,170,0,0,1,426,256h0A170,170,0,0,1,256,426Z" fill="#231f20"/><path d="M256,420.1c90.38,0,164.09-73.72,164.09-164.1S346.38,91.9,256,91.9,91.9,165.62,91.9,256,165.62,420.1,256,420.1Z" fill="#231f20" fill-rule="evenodd"/><path d="M412.43,206.32a164.14,164.14,0,0,0-312.86,0C113.41,270.44,178.19,319,256,319S398.59,270.44,412.43,206.32Z" fill-rule="evenodd" fill="url(#linear-gradient)"/><path d="M337.12,339.22V255.91h13.44c12.7,0,8.71-12.73,3.29-18.63l-82.28-89.41c-10-10.87-17-14.44-28.48-1.94L221.22,169.7V162c0-8.94-3.78-10.51-11.84-10.51h-4c-10.17,0-14.86,2.52-14.86,13.72v37.91L157.73,238.7c-7.72,8.39-6.24,17.21,6.33,17.21h11.86v86.53c0,15.09,3.91,20.18,19,20.18h43.72c13.52,0,21.49,0,21.49-15.38V327.59c0-19,1.81-22.8,21-22.8,7.62,0,15.68-.5,19.63,1.91,5.07,3.1,4.93,10.27,4.93,21.28v14c0,13.23,0,21.3,15.13,20.51s16.26-7.66,16.26-23.32ZM212.59,266h6.82c12.45,0,12.1-1.28,12.1,11.06v5.62c0,13.26-.11,11.23-13.3,11.23h-6.82c-12.38,0-14.29,2.75-14.29-10v-6.42C197.09,263.13,198.48,266,212.59,266Z" fill-rule="evenodd" fill="url(#GradientFill_2)"/></svg>